<svg xmlns="http://www.w3.org/2000/svg" width="1231" height="960" viewBox="0 0 1231 960">
  <defs>
    <style>
      .cls-1 {
        fill: #fff;
      }

      .cls-2, .cls-3 {
        stroke: none;
      }

      .cls-3 {
        fill: #fff;
      }
    </style>
  </defs>
  <g id="BiT" transform="translate(-100 -99.501)">
    <g id="B" class="cls-1" transform="translate(100 99.501)">
      <path class="cls-2" d="M 684.5001831054688 959.4996337890625 L 0.5000611543655396 959.4996337890625 L 0.5001786947250366 411.427734375 L 0.5001786947250366 199.9997406005859 C 0.5001786947250366 186.4631652832031 1.863825798034668 172.9357452392578 4.553237438201904 159.7930450439453 C 7.174296379089355 146.9838714599609 11.08523750305176 134.3846893310547 16.1774730682373 122.3456268310547 C 21.17782592773438 110.5238647460938 27.36629676818848 99.12245178222656 34.57123565673828 88.45798492431641 C 41.70747375488281 77.89456939697266 49.90370941162109 67.9605712890625 58.93217849731445 58.93210220336914 C 67.96029663085938 49.90386581420898 77.89429473876953 41.7076301574707 88.45794677734375 34.5712776184082 C 99.12229919433594 27.36633491516113 110.5237045288086 21.17786598205566 122.345588684082 16.17739486694336 C 134.3851165771484 11.08515930175781 146.9842987060547 7.17421817779541 159.7931213378906 4.553277015686035 C 172.9360656738281 1.863747477531433 186.4635925292969 0.5001003742218018 199.9999389648438 0.5001003742218018 L 210.9997100830078 0.5001003742218018 C 224.5360565185547 0.5001003742218018 238.0635833740234 1.863747477531433 251.2064208984375 4.553277015686035 C 264.0152282714844 7.174100399017334 276.6142883300781 11.08504199981689 288.6538391113281 16.17739486694336 C 300.4748840332031 21.17727661132813 311.8764038085938 27.36586570739746 322.5419311523438 34.5712776184082 C 333.10546875 41.7076301574707 343.0394592285156 49.90386581420898 352.0677185058594 58.93210220336914 C 361.09619140625 67.96045684814453 369.2924194335938 77.89445495605469 376.4288940429688 88.45798492431641 C 383.6334838867188 99.12162780761719 389.8220520019531 110.5231628417969 394.8228759765625 122.3456268310547 C 399.9152526855469 134.3852844238281 403.826171875 146.9844512939453 406.4471130371094 159.7930450439453 C 409.1366577148438 172.9360961914063 410.5004272460938 186.463623046875 410.5004272460938 199.9997406005859 L 410.5004272460938 411.427734375 L 410.5004272460938 411.927734375 L 411.0004272460938 411.927734375 L 485.0001831054688 411.9278564453125 C 498.5358276367188 411.9278564453125 512.0633544921875 413.29150390625 525.20703125 415.9810485839844 C 538.0162963867188 418.6022033691406 550.6153564453125 422.5132751464844 562.6544189453125 427.6054077148438 C 574.47607421875 432.6054992675781 585.8775024414063 438.7940979003906 596.5421752929688 445.999267578125 C 607.10595703125 453.135986328125 617.0398559570313 461.3322143554688 626.0678100585938 470.3602294921875 C 635.0963134765625 479.3887023925781 643.2925415039063 489.3226928710938 650.4288940429688 499.8861083984375 C 657.6337280273438 510.5508117675781 663.8223266601563 521.9524536132813 668.8226318359375 533.7742309570313 C 673.9149780273438 545.8138427734375 677.825927734375 558.4130249023438 680.4468994140625 571.2217407226563 C 683.1364135742188 584.3654174804688 684.5001831054688 597.8929443359375 684.5001831054688 611.4285888671875 L 684.5001831054688 959.4996337890625 Z M 217.0000610351563 548.0709228515625 C 172.6121826171875 548.0709228515625 136.5000610351563 584.1830444335938 136.5000610351563 628.5709228515625 L 136.5000610351563 822.856689453125 L 136.5000610351563 823.356689453125 L 137.0000610351563 823.356689453125 L 548.0001831054688 823.356689453125 L 548.5001831054688 823.356689453125 L 548.5001831054688 822.856689453125 L 548.5003051757813 628.5709228515625 C 548.5003051757813 584.1830444335938 512.3880615234375 548.0709228515625 468.0000610351563 548.0709228515625 L 217.0000610351563 548.0709228515625 Z M 205.4998321533203 136.6431579589844 C 167.4532318115234 136.6431579589844 136.5000610351563 167.5963287353516 136.5000610351563 205.6429290771484 L 136.5000610351563 411.4285583496094 L 136.5000610351563 411.9285583496094 L 137.0000610351563 411.9285583496094 L 273.9996032714844 411.9286804199219 L 274.4996032714844 411.9286804199219 L 274.4996032714844 411.4286804199219 L 274.4996948242188 205.6429290771484 C 274.4996948242188 167.5963287353516 243.5465240478516 136.6431579589844 205.4998321533203 136.6431579589844 Z"/>
      <path class="cls-3" d="M 684.0001831054688 958.9996337890625 L 684.0001831054688 611.4285888671875 C 684.0001831054688 597.9265747070313 682.6398315429688 584.4326782226563 679.9570922851563 571.3219604492188 C 677.3427734375 558.545654296875 673.4417114257813 545.9782104492188 668.3621826171875 533.9689331054688 C 663.3743896484375 522.1769409179688 657.2013549804688 510.8039855957031 650.0146484375 500.1659851074219 C 642.8960571289063 489.6289367675781 634.7201538085938 479.7197570800781 625.7142944335938 470.7137451171875 C 616.708740234375 461.7082214355469 606.7996826171875 453.5324401855469 596.2622680664063 446.4135131835938 C 585.624267578125 439.2264404296875 574.25146484375 433.0534057617188 562.459716796875 428.0659790039063 C 550.4509887695313 422.986572265625 537.8837280273438 419.0853881835938 525.1067504882813 416.4707946777344 C 511.9960632324219 413.7880859375 498.5022888183594 412.4278564453125 485.0001831054688 412.4278564453125 L 411.0004272460938 412.427734375 L 410.0004272460938 412.427734375 L 410.0004272460938 411.427734375 L 410.0004272460938 199.9997406005859 C 410.0004272460938 186.4972839355469 408.6400756835938 173.0035095214844 405.9573669433594 159.8932800292969 C 403.3428955078125 147.1169281005859 399.4418334960938 134.5496368408203 394.3624267578125 122.5403366088867 C 389.3741760253906 110.7476272583008 383.2011108398438 99.37480926513672 376.0146484375 88.73786163330078 C 368.8959350585938 78.20069122314453 360.7200622558594 68.29151153564453 351.7141723632813 59.28562927246094 C 342.7084045410156 50.27986526489258 332.7992248535156 42.10421752929688 322.2620544433594 34.98551177978516 C 311.6232299804688 27.79833602905273 300.2503051757813 21.62527656555176 288.4591064453125 16.63798332214355 C 276.449951171875 11.55845355987549 263.8826599121094 7.657394409179688 251.1061859130859 5.043041706085205 C 237.9962921142578 2.3603355884552 224.5025329589844 1.000100374221802 210.9997100830078 1.000100374221802 L 199.9999389648438 1.000100374221802 C 186.4972381591797 1.000100374221802 173.0033569335938 2.3603355884552 159.8933563232422 5.043041706085205 C 147.1168823242188 7.657394409179688 134.5494689941406 11.55845355987549 122.5402984619141 16.63786506652832 C 110.748176574707 21.62574768066406 99.37547302246094 27.79880714416504 88.73782348632813 34.98551177978516 C 78.20053100585938 42.10421752929688 68.29135894775391 50.27986526489258 59.28570938110352 59.28562927246094 C 50.27982711791992 68.29163360595703 42.10406112670898 78.2008056640625 34.9854736328125 88.73786163330078 C 27.79876708984375 99.37563323974609 21.62570762634277 110.7483367919922 16.6380615234375 122.5403366088867 C 11.55864906311035 134.5490417480469 7.657590389251709 147.116455078125 5.043002128601074 159.8932800292969 C 2.360414028167725 173.0030364990234 1.000178694725037 186.4968109130859 1.000178694725037 199.9997406005859 L 1.000178694725037 411.427734375 L 1.000061273574829 958.9996337890625 L 684.0001831054688 958.9996337890625 M 217.0000610351563 547.5709228515625 L 468.0000610351563 547.5709228515625 C 512.6636962890625 547.5709228515625 549.0003051757813 583.9074096679688 549.0003051757813 628.5709228515625 L 549.0001831054688 822.856689453125 L 549.0001831054688 823.856689453125 L 548.0001831054688 823.856689453125 L 137.0000610351563 823.856689453125 L 136.0000610351563 823.856689453125 L 136.0000610351563 822.856689453125 L 136.0000610351563 628.5709228515625 C 136.0000610351563 583.9074096679688 172.3365325927734 547.5709228515625 217.0000610351563 547.5709228515625 M 205.4998321533203 136.1431579589844 C 243.8221740722656 136.1431579589844 274.9996948242188 167.3205718994141 274.9996948242188 205.6429290771484 L 274.9996032714844 411.4286804199219 L 274.9996032714844 412.4286804199219 L 273.9996032714844 412.4286804199219 L 137.0000610351563 412.4285583496094 L 136.0000610351563 412.4285583496094 L 136.0000610351563 411.4285583496094 L 136.0000610351563 205.6429290771484 C 136.0000610351563 167.3205718994141 167.1774749755859 136.1431579589844 205.4998321533203 136.1431579589844 M 685.0001831054688 960.0005493164063 L 685.0000610351563 959.9996337890625 L 6.103515625e-05 959.9996337890625 L 0.0001786822103895247 411.427734375 L 0.0001786822103895247 199.9997406005859 C 0.0001786822103895247 186.4302215576172 1.367119908332825 172.8689270019531 4.063354969024658 159.6928100585938 C 6.691002368927002 146.8516235351563 10.61182594299316 134.2205657958984 15.71700191497803 122.1508026123047 C 20.72970771789551 110.2997436523438 26.93370819091797 98.86962890625 34.15688323974609 88.1781005859375 C 41.31111907958984 77.58809661865234 49.52782440185547 67.62939453125 58.57864761352539 58.57857131958008 C 67.62935638427734 49.52774810791016 77.58818054199219 41.31104278564453 88.17806243896484 34.15692520141602 C 98.86982727050781 26.93351173400879 110.3000640869141 20.72951126098633 122.150764465332 15.71692371368408 C 134.2207641601563 10.61174774169922 146.8518218994141 6.690923690795898 159.6928863525391 4.063394546508789 C 172.8688812255859 1.367159247398376 186.4299468994141 0.000100399243819993 199.9999389648438 0.000100399243819993 L 210.9997100830078 0.000100399243819993 C 224.5695953369141 0.000100399243819993 238.1307678222656 1.367159247398376 251.3066558837891 4.063394546508789 C 264.1478271484375 6.690923690795898 276.7787780761719 10.61174774169922 288.8486633300781 15.71692371368408 C 300.6993408203125 20.72939491271973 312.1295776367188 26.93351173400879 322.8218383789063 34.15692520141602 C 333.4119567871094 41.31127548217773 343.3705444335938 49.52786636352539 352.4212341308594 58.57857131958008 C 361.4719543457031 67.62915802001953 369.6887817382813 77.58786773681641 376.8432312011719 88.1781005859375 C 384.0667724609375 98.86986541748047 390.2706604003906 110.3001022338867 395.2833557128906 122.1508026123047 C 400.388427734375 134.2205657958984 404.3093566894531 146.8516235351563 406.93701171875 159.6928100585938 C 409.6333618164063 172.8691558837891 411.0004272460938 186.4303283691406 411.0004272460938 199.9997406005859 L 411.0004272460938 411.427734375 L 485.0001831054688 411.4278564453125 C 498.570068359375 411.4278564453125 512.131103515625 412.7950439453125 525.3072509765625 415.4911499023438 C 538.1485595703125 418.1189270019531 550.7794799804688 422.0397338867188 562.8492431640625 427.1449279785156 C 574.7000732421875 432.1574096679688 586.1301879882813 438.3613891601563 596.8220825195313 445.5849304199219 C 607.4121704101563 452.7393798828125 617.3709106445313 460.9560852050781 626.4213256835938 470.0066833496094 C 635.4722900390625 479.0576171875 643.6890258789063 489.0163269042969 650.84326171875 499.6062316894531 C 658.066650390625 510.2984619140625 664.2705078125 521.7286987304688 669.2831420898438 533.5794067382813 C 674.38818359375 545.6490478515625 678.3091430664063 558.2799682617188 680.936767578125 571.1215209960938 C 683.6329956054688 584.2978515625 685.0001831054688 597.859130859375 685.0001831054688 611.4285888671875 L 685.0001831054688 959.9996337890625 L 685.0001831054688 960.0005493164063 Z M 217.0000610351563 548.5709228515625 C 172.8878326416016 548.5709228515625 137.0000610351563 584.4585571289063 137.0000610351563 628.5709228515625 L 137.0000610351563 822.856689453125 L 548.0001831054688 822.856689453125 L 548.0003051757813 628.5709228515625 C 548.0003051757813 584.4585571289063 512.1123046875 548.5709228515625 468.0000610351563 548.5709228515625 L 217.0000610351563 548.5709228515625 Z M 205.4998321533203 137.1431579589844 C 167.7288818359375 137.1431579589844 137.0000610351563 167.8719787597656 137.0000610351563 205.6429290771484 L 137.0000610351563 411.4285583496094 L 273.9996032714844 411.4286804199219 L 273.9996948242188 205.6429290771484 C 273.9996948242188 167.8719787597656 243.2707672119141 137.1431579589844 205.4998321533203 137.1431579589844 Z"/>
    </g>
    <g id="i" class="cls-1" transform="translate(4089.431 1615.143)">
      <path class="cls-2" d="M -3029.9306640625 -556.1420288085938 L -3166.930419921875 -556.1420288085938 L -3166.930419921875 -897.6420288085938 C -3166.930419921875 -906.8897094726563 -3165.119384765625 -915.8604736328125 -3161.547607421875 -924.3051147460938 C -3159.830810546875 -928.3638916015625 -3157.705810546875 -932.2786254882813 -3155.23193359375 -935.9405517578125 C -3152.78125 -939.5678100585938 -3149.967041015625 -942.9786987304688 -3146.8671875 -946.0785522460938 C -3143.767333984375 -949.1784057617188 -3140.356201171875 -951.9926147460938 -3136.72900390625 -954.4432373046875 C -3133.06689453125 -956.9171142578125 -3129.152099609375 -959.0419921875 -3125.09326171875 -960.7586059570313 C -3116.648681640625 -964.3303833007813 -3107.677734375 -966.141357421875 -3098.43017578125 -966.141357421875 C -3089.1826171875 -966.141357421875 -3080.2119140625 -964.3303833007813 -3071.767333984375 -960.7586059570313 C -3067.708740234375 -959.0419921875 -3063.7939453125 -956.9171142578125 -3060.132080078125 -954.4432373046875 C -3056.504638671875 -951.9926147460938 -3053.09375 -949.1784057617188 -3049.993896484375 -946.0785522460938 C -3046.89404296875 -942.9786987304688 -3044.07958984375 -939.5678100585938 -3041.629150390625 -935.9405517578125 C -3039.1552734375 -932.2786254882813 -3037.0302734375 -928.3638916015625 -3035.3134765625 -924.3051147460938 C -3031.74169921875 -915.8604736328125 -3029.9306640625 -906.8897094726563 -3029.9306640625 -897.6420288085938 L -3029.9306640625 -556.1420288085938 Z M -3029.9306640625 -1104.14208984375 L -3166.930419921875 -1104.14208984375 L -3166.930419921875 -1171.6416015625 C -3166.930419921875 -1180.88916015625 -3165.119384765625 -1189.860107421875 -3161.547607421875 -1198.304809570313 C -3159.830810546875 -1202.363647460938 -3157.705810546875 -1206.278442382813 -3155.23193359375 -1209.9404296875 C -3152.78125 -1213.567749023438 -3149.967041015625 -1216.978759765625 -3146.8671875 -1220.07861328125 C -3143.76708984375 -1223.178588867188 -3140.356201171875 -1225.992919921875 -3136.72900390625 -1228.443481445313 C -3133.06689453125 -1230.91748046875 -3129.152099609375 -1233.042358398438 -3125.09326171875 -1234.759033203125 C -3116.648681640625 -1238.330932617188 -3107.677734375 -1240.141967773438 -3098.43017578125 -1240.141967773438 C -3089.1826171875 -1240.141967773438 -3080.2119140625 -1238.330932617188 -3071.767333984375 -1234.759033203125 C -3067.708740234375 -1233.042358398438 -3063.7939453125 -1230.91748046875 -3060.132080078125 -1228.443481445313 C -3056.504638671875 -1225.992919921875 -3053.09375 -1223.178588867188 -3049.993896484375 -1220.07861328125 C -3046.89404296875 -1216.978759765625 -3044.07958984375 -1213.567749023438 -3041.629150390625 -1209.9404296875 C -3039.1552734375 -1206.278442382813 -3037.0302734375 -1202.363647460938 -3035.3134765625 -1198.304809570313 C -3031.74169921875 -1189.860107421875 -3029.9306640625 -1180.88916015625 -3029.9306640625 -1171.6416015625 L -3029.9306640625 -1104.14208984375 Z"/>
      <path class="cls-3" d="M -3030.4306640625 -556.6420288085938 L -3030.4306640625 -897.6420288085938 C -3030.4306640625 -906.8224487304688 -3032.228515625 -915.7277221679688 -3035.77392578125 -924.1103515625 C -3037.478271484375 -928.139404296875 -3039.58740234375 -932.0254516601563 -3042.04345703125 -935.6605834960938 C -3044.476318359375 -939.2615356445313 -3047.27001953125 -942.647705078125 -3050.347412109375 -945.7250366210938 C -3053.4248046875 -948.8023071289063 -3056.81103515625 -951.5962524414063 -3060.411865234375 -954.0288696289063 C -3064.047119140625 -956.4848022460938 -3067.93310546875 -958.5940551757813 -3071.962158203125 -960.2981567382813 C -3080.3447265625 -963.8436889648438 -3089.25 -965.6414184570313 -3098.43017578125 -965.6414184570313 C -3107.610595703125 -965.6414184570313 -3116.515869140625 -963.8436889648438 -3124.898681640625 -960.2981567382813 C -3128.927734375 -958.5940551757813 -3132.813720703125 -956.4848022460938 -3136.448974609375 -954.0288696289063 C -3140.050048828125 -951.5962524414063 -3143.436279296875 -948.8023071289063 -3146.513671875 -945.7250366210938 C -3149.5908203125 -942.647705078125 -3152.384765625 -939.2615356445313 -3154.817626953125 -935.6605834960938 C -3157.2734375 -932.0254516601563 -3159.3828125 -928.139404296875 -3161.0869140625 -924.1103515625 C -3164.632568359375 -915.7277221679688 -3166.430419921875 -906.8224487304688 -3166.430419921875 -897.6420288085938 L -3166.430419921875 -556.6420288085938 L -3030.4306640625 -556.6420288085938 M -3030.4306640625 -1104.64208984375 L -3030.4306640625 -1171.6416015625 C -3030.4306640625 -1180.822021484375 -3032.228515625 -1189.727294921875 -3035.77392578125 -1198.110107421875 C -3037.478271484375 -1202.13916015625 -3039.587646484375 -1206.025390625 -3042.04345703125 -1209.660522460938 C -3044.476318359375 -1213.261474609375 -3047.27001953125 -1216.647705078125 -3050.347412109375 -1219.72509765625 C -3053.4248046875 -1222.802490234375 -3056.81103515625 -1225.596435546875 -3060.411865234375 -1228.029174804688 C -3064.047119140625 -1230.485107421875 -3067.93310546875 -1232.594482421875 -3071.962158203125 -1234.298583984375 C -3080.3447265625 -1237.844116210938 -3089.25 -1239.641967773438 -3098.43017578125 -1239.641967773438 C -3107.610595703125 -1239.641967773438 -3116.515869140625 -1237.844116210938 -3124.898681640625 -1234.298583984375 C -3128.927734375 -1232.594482421875 -3132.813720703125 -1230.485107421875 -3136.448974609375 -1228.029174804688 C -3140.050048828125 -1225.596435546875 -3143.43603515625 -1222.802490234375 -3146.513671875 -1219.72509765625 C -3149.5908203125 -1216.647705078125 -3152.384765625 -1213.261474609375 -3154.817626953125 -1209.660522460938 C -3157.2734375 -1206.025390625 -3159.3828125 -1202.13916015625 -3161.0869140625 -1198.110107421875 C -3164.632568359375 -1189.727294921875 -3166.430419921875 -1180.822021484375 -3166.430419921875 -1171.6416015625 L -3166.430419921875 -1104.64208984375 L -3030.4306640625 -1104.64208984375 M -3029.4306640625 -555.6420288085938 L -3167.430419921875 -555.6420288085938 L -3167.430419921875 -897.6420288085938 C -3167.430419921875 -935.749755859375 -3136.537841796875 -966.6414184570313 -3098.43017578125 -966.6414184570313 C -3060.3232421875 -966.6414184570313 -3029.4306640625 -935.749755859375 -3029.4306640625 -897.6420288085938 L -3029.4306640625 -555.6420288085938 Z M -3029.4306640625 -1103.64208984375 L -3167.430419921875 -1103.64208984375 L -3167.430419921875 -1171.6416015625 C -3167.430419921875 -1209.749389648438 -3136.537841796875 -1240.641967773438 -3098.43017578125 -1240.641967773438 C -3060.3232421875 -1240.641967773438 -3029.4306640625 -1209.749389648438 -3029.4306640625 -1171.6416015625 L -3029.4306640625 -1103.64208984375 Z"/>
    </g>
    <g id="T" class="cls-1" transform="translate(646 99.501)">
      <path class="cls-2" d="M 684.5001831054688 959.4996337890625 L 548.5001831054688 959.4996337890625 L 548.5003051757813 274.2859802246094 L 548.5003051757813 217.1431579589844 C 548.5003051757813 172.7552795410156 512.3880615234375 136.6431579589844 468.0000610351563 136.6431579589844 L 217.0000610351563 136.6431579589844 C 172.6121826171875 136.6431579589844 136.5000610351563 172.7552795410156 136.5000610351563 217.1431579589844 L 136.5000610351563 233.142333984375 L 136.5000610351563 273.7859802246094 L 0.5000614523887634 273.7857360839844 L 0.5001786947250366 136.9997406005859 C 0.5001786947250366 127.7372741699219 1.433237552642822 118.4816284179688 3.27335524559021 109.4898681640625 C 5.066413879394531 100.7264556884766 7.74229621887207 92.10597991943359 11.22664928436279 83.86821746826172 C 14.64770793914795 75.77951049804688 18.88194274902344 67.97856903076172 23.81182479858398 60.68174743652344 C 28.69488525390625 53.45386505126953 34.30288314819336 46.65692520141602 40.47994232177734 40.47986602783203 C 46.65688323974609 34.30280685424805 53.45370864868164 28.6948070526123 60.68182754516602 23.81174659729004 C 67.97770690917969 18.88257026672363 75.77864837646484 14.64833545684814 83.86805725097656 11.22657108306885 C 92.10606384277344 7.742335796356201 100.7264175415039 5.066453456878662 109.4898223876953 3.273276805877686 C 118.482177734375 1.433159232139587 127.7379455566406 0.5001003742218018 136.9999389648438 0.5001003742218018 L 548.0001831054688 0.5001003742218018 C 557.2620849609375 0.5001003742218018 566.517822265625 1.433159232139587 575.5103149414063 3.273276805877686 C 584.2738037109375 5.066453456878662 592.894287109375 7.742335796356201 601.1319580078125 11.22657108306885 C 609.2212524414063 14.64821815490723 617.0222778320313 18.88245391845703 624.3182983398438 23.81174659729004 C 631.546630859375 28.69504165649414 638.3435668945313 34.30304336547852 644.5202026367188 40.47986602783203 C 650.697265625 46.65692520141602 656.3052368164063 53.45386505126953 661.1882934570313 60.68174743652344 C 666.1181640625 67.97856903076172 670.3524169921875 75.77951049804688 673.7734985351563 83.86821746826172 C 677.257568359375 92.10551452636719 679.9334716796875 100.7258682250977 681.7267456054688 109.4898681640625 C 683.567138671875 118.4828033447266 684.5001831054688 127.7384567260742 684.5001831054688 136.9997406005859 L 684.5001831054688 959.4996337890625 Z"/>
      <path class="cls-3" d="M 684.0001831054688 958.9996337890625 L 684.0001831054688 136.9997406005859 C 684.0001831054688 127.772102355957 683.070556640625 118.5502166748047 681.2369995117188 109.5901031494141 C 679.4501953125 100.8584518432617 676.7841796875 92.26986694335938 673.3128662109375 84.06292724609375 C 669.9044189453125 76.00409698486328 665.6857299804688 68.23162841796875 660.7740478515625 60.96162796020508 C 655.9087524414063 53.76010131835938 650.3212280273438 46.98798370361328 644.16650390625 40.83339309692383 C 638.0125122070313 34.67904281616211 631.2404174804688 29.09151268005371 624.0383911132813 24.22598266601563 C 616.7691040039063 19.3149242401123 608.9967651367188 15.09621810913086 600.937255859375 11.68715953826904 C 592.7299194335938 8.215747833251953 584.141357421875 5.549747467041016 575.4100341796875 3.763041496276855 C 566.4505615234375 1.929747462272644 557.228515625 1.000100374221802 548.0001831054688 1.000100374221802 L 136.9999389648438 1.000100374221802 C 127.7714691162109 1.000100374221802 118.5494689941406 1.929747462272644 109.5900573730469 3.763041496276855 C 100.859001159668 5.549629688262939 92.27041625976563 8.215629577636719 84.06276702880859 11.68704128265381 C 76.00312042236328 15.09621810913086 68.23076629638672 19.3149242401123 60.96170806884766 24.22598266601563 C 53.75994491577148 29.09127616882324 46.98782730102539 34.67880630493164 40.83347320556641 40.83339309692383 C 34.67888641357422 46.98798370361328 29.09135437011719 53.76010131835938 24.22606086730957 60.96162796020508 C 19.31441307067871 68.23162841796875 15.09570789337158 76.00409698486328 11.68723773956299 84.06292724609375 C 8.215707778930664 92.27033233642578 5.549707889556885 100.8589248657227 3.76311993598938 109.5901031494141 C 1.929825782775879 118.5489273071289 1.000178694725037 127.7709274291992 1.000178694725037 136.9997406005859 L 1.000061869621277 273.2857360839844 L 136.0000610351563 273.2859802246094 L 136.0000610351563 233.142333984375 L 136.0000610351563 217.1431579589844 C 136.0000610351563 172.4796295166016 172.3365325927734 136.1431579589844 217.0000610351563 136.1431579589844 L 468.0000610351563 136.1431579589844 C 512.6636962890625 136.1431579589844 549.0003051757813 172.4796295166016 549.0003051757813 217.1431579589844 L 549.0003051757813 274.2859802246094 L 549.0001831054688 958.9996337890625 L 684.0001831054688 958.9996337890625 M 685.0001831054688 960.0005493164063 L 685.0000610351563 959.9996337890625 L 548.0001831054688 959.9996337890625 L 548.0003051757813 274.2859802246094 L 548.0003051757813 217.1431579589844 C 548.0003051757813 173.0309295654297 512.1123046875 137.1431579589844 468.0000610351563 137.1431579589844 L 217.0000610351563 137.1431579589844 C 172.8878326416016 137.1431579589844 137.0000610351563 173.0309295654297 137.0000610351563 217.1431579589844 L 137.0000610351563 233.142333984375 L 137.0000610351563 274.2859802246094 L 6.103515625e-05 274.2857360839844 L 0.0001786822103895247 136.9997406005859 C 0.0001786822103895247 127.7041015625 0.9365316033363342 118.4146881103516 2.783472776412964 109.3896331787109 C 4.583237648010254 100.5936279296875 7.269119739532471 91.94127655029297 10.76617908477783 83.67339324951172 C 14.19982528686523 75.55503845214844 18.4495906829834 67.72539520263672 23.3974723815918 60.4018669128418 C 28.29829597473145 53.14774703979492 33.92676544189453 46.32598114013672 40.12641525268555 40.12633514404297 C 46.32570648193359 33.92680740356445 53.14723587036133 28.29845428466797 60.40194320678711 23.39739418029785 C 67.72512054443359 18.44974708557129 75.55476379394531 14.20009994506836 83.67324066162109 10.76609992980957 C 91.94111633300781 7.269159317016602 100.5933532714844 4.583276748657227 109.3895874023438 2.783394575119019 C 118.4152374267578 0.9364533424377441 127.7048873901367 0.000100399243819993 136.9999389648438 0.000100399243819993 L 548.0001831054688 0.000100399243819993 C 557.2951049804688 0.000100399243819993 566.5847778320313 0.9364533424377441 575.6105346679688 2.783394575119019 C 584.4066772460938 4.583276748657227 593.0590209960938 7.269159317016602 601.3267822265625 10.76609992980957 C 609.4452514648438 14.20009994506836 617.27490234375 18.44974708557129 624.5982055664063 23.39739418029785 C 631.852783203125 28.29845428466797 638.6744384765625 33.92680740356445 644.8737182617188 40.12633514404297 C 651.0733642578125 46.32598114013672 656.7018432617188 53.14774703979492 661.6026611328125 60.4018669128418 C 666.550537109375 67.72539520263672 670.80029296875 75.55503845214844 674.2339477539063 83.67339324951172 C 677.7310180664063 91.94127655029297 680.416748046875 100.5936279296875 682.2166748046875 109.3896331787109 C 684.0635986328125 118.4151611328125 685.0001831054688 127.7045745849609 685.0001831054688 136.9997406005859 L 685.0001831054688 959.9996337890625 L 685.0001831054688 960.0005493164063 Z"/>
    </g>
  </g>
</svg>
