<svg xmlns="http://www.w3.org/2000/svg" xmlns:xlink="http://www.w3.org/1999/xlink" width="430" height="631" viewBox="0 0 430 631">
  <defs>
    <filter id="Rectangle_5" x="68" y="48" width="295" height="46" filterUnits="userSpaceOnUse">
      <feOffset dy="3" input="SourceAlpha"/>
      <feGaussianBlur stdDeviation="3" result="blur"/>
      <feFlood flood-opacity="0.161"/>
      <feComposite operator="in" in2="blur"/>
      <feComposite in="SourceGraphic"/>
    </filter>
    <filter id="Rectangle_6" x="68" y="124" width="344" height="33" filterUnits="userSpaceOnUse">
      <feOffset dy="3" input="SourceAlpha"/>
      <feGaussianBlur stdDeviation="3" result="blur-2"/>
      <feFlood flood-opacity="0.161"/>
      <feComposite operator="in" in2="blur-2"/>
      <feComposite in="SourceGraphic"/>
    </filter>
    <filter id="Rectangle_7" x="19" y="167" width="393" height="33" filterUnits="userSpaceOnUse">
      <feOffset dy="3" input="SourceAlpha"/>
      <feGaussianBlur stdDeviation="3" result="blur-3"/>
      <feFlood flood-opacity="0.161"/>
      <feComposite operator="in" in2="blur-3"/>
      <feComposite in="SourceGraphic"/>
    </filter>
    <filter id="Rectangle_8" x="19" y="210" width="246" height="33" filterUnits="userSpaceOnUse">
      <feOffset dy="3" input="SourceAlpha"/>
      <feGaussianBlur stdDeviation="3" result="blur-4"/>
      <feFlood flood-opacity="0.161"/>
      <feComposite operator="in" in2="blur-4"/>
      <feComposite in="SourceGraphic"/>
    </filter>
    <filter id="Rectangle_9" x="68" y="253" width="344" height="33" filterUnits="userSpaceOnUse">
      <feOffset dy="3" input="SourceAlpha"/>
      <feGaussianBlur stdDeviation="3" result="blur-5"/>
      <feFlood flood-opacity="0.161"/>
      <feComposite operator="in" in2="blur-5"/>
      <feComposite in="SourceGraphic"/>
    </filter>
    <filter id="Rectangle_10" x="19" y="296" width="393" height="33" filterUnits="userSpaceOnUse">
      <feOffset dy="3" input="SourceAlpha"/>
      <feGaussianBlur stdDeviation="3" result="blur-6"/>
      <feFlood flood-opacity="0.161"/>
      <feComposite operator="in" in2="blur-6"/>
      <feComposite in="SourceGraphic"/>
    </filter>
    <filter id="Rectangle_11" x="19" y="339" width="246" height="33" filterUnits="userSpaceOnUse">
      <feOffset dy="3" input="SourceAlpha"/>
      <feGaussianBlur stdDeviation="3" result="blur-7"/>
      <feFlood flood-opacity="0.161"/>
      <feComposite operator="in" in2="blur-7"/>
      <feComposite in="SourceGraphic"/>
    </filter>
    <filter id="Rectangle_12" x="68" y="382" width="344" height="33" filterUnits="userSpaceOnUse">
      <feOffset dy="3" input="SourceAlpha"/>
      <feGaussianBlur stdDeviation="3" result="blur-8"/>
      <feFlood flood-opacity="0.161"/>
      <feComposite operator="in" in2="blur-8"/>
      <feComposite in="SourceGraphic"/>
    </filter>
    <filter id="Rectangle_13" x="19" y="425" width="393" height="33" filterUnits="userSpaceOnUse">
      <feOffset dy="3" input="SourceAlpha"/>
      <feGaussianBlur stdDeviation="3" result="blur-9"/>
      <feFlood flood-opacity="0.161"/>
      <feComposite operator="in" in2="blur-9"/>
      <feComposite in="SourceGraphic"/>
    </filter>
    <filter id="Rectangle_14" x="19" y="468" width="246" height="33" filterUnits="userSpaceOnUse">
      <feOffset dy="3" input="SourceAlpha"/>
      <feGaussianBlur stdDeviation="3" result="blur-10"/>
      <feFlood flood-opacity="0.161"/>
      <feComposite operator="in" in2="blur-10"/>
      <feComposite in="SourceGraphic"/>
    </filter>
  </defs>
  <g id="paper" transform="translate(-189 -225)">
    <rect id="Rectangle_4" data-name="Rectangle 4" width="430" height="631" transform="translate(189 225)" fill="#fff"/>
    <g transform="matrix(1, 0, 0, 1, 189, 225)" filter="url(#Rectangle_5)">
      <g id="Rectangle_5-2" data-name="Rectangle 5" transform="translate(77 54)" fill="#2e2d2d" stroke="#707070" stroke-width="1" opacity="0.2">
        <rect width="277" height="28" rx="14" stroke="none"/>
        <rect x="0.5" y="0.5" width="276" height="27" rx="13.5" fill="none"/>
      </g>
    </g>
    <g transform="matrix(1, 0, 0, 1, 189, 225)" filter="url(#Rectangle_6)">
      <g id="Rectangle_6-2" data-name="Rectangle 6" transform="translate(77 130)" fill="#2e2d2d" stroke="#707070" stroke-width="1" opacity="0.14">
        <rect width="326" height="15" rx="7.5" stroke="none"/>
        <rect x="0.5" y="0.5" width="325" height="14" rx="7" fill="none"/>
      </g>
    </g>
    <g transform="matrix(1, 0, 0, 1, 189, 225)" filter="url(#Rectangle_7)">
      <g id="Rectangle_7-2" data-name="Rectangle 7" transform="translate(28 173)" fill="#2e2d2d" stroke="#707070" stroke-width="1" opacity="0.14">
        <rect width="375" height="15" rx="7.5" stroke="none"/>
        <rect x="0.5" y="0.5" width="374" height="14" rx="7" fill="none"/>
      </g>
    </g>
    <g transform="matrix(1, 0, 0, 1, 189, 225)" filter="url(#Rectangle_8)">
      <g id="Rectangle_8-2" data-name="Rectangle 8" transform="translate(28 216)" fill="#2e2d2d" stroke="#707070" stroke-width="1" opacity="0.14">
        <rect width="228" height="15" rx="7.5" stroke="none"/>
        <rect x="0.5" y="0.5" width="227" height="14" rx="7" fill="none"/>
      </g>
    </g>
    <g transform="matrix(1, 0, 0, 1, 189, 225)" filter="url(#Rectangle_9)">
      <g id="Rectangle_9-2" data-name="Rectangle 9" transform="translate(77 259)" fill="#2e2d2d" stroke="#707070" stroke-width="1" opacity="0.14">
        <rect width="326" height="15" rx="7.5" stroke="none"/>
        <rect x="0.5" y="0.5" width="325" height="14" rx="7" fill="none"/>
      </g>
    </g>
    <g transform="matrix(1, 0, 0, 1, 189, 225)" filter="url(#Rectangle_10)">
      <g id="Rectangle_10-2" data-name="Rectangle 10" transform="translate(28 302)" fill="#2e2d2d" stroke="#707070" stroke-width="1" opacity="0.14">
        <rect width="375" height="15" rx="7.5" stroke="none"/>
        <rect x="0.5" y="0.5" width="374" height="14" rx="7" fill="none"/>
      </g>
    </g>
    <g transform="matrix(1, 0, 0, 1, 189, 225)" filter="url(#Rectangle_11)">
      <g id="Rectangle_11-2" data-name="Rectangle 11" transform="translate(28 345)" fill="#2e2d2d" stroke="#707070" stroke-width="1" opacity="0.14">
        <rect width="228" height="15" rx="7.5" stroke="none"/>
        <rect x="0.5" y="0.5" width="227" height="14" rx="7" fill="none"/>
      </g>
    </g>
    <g transform="matrix(1, 0, 0, 1, 189, 225)" filter="url(#Rectangle_12)">
      <g id="Rectangle_12-2" data-name="Rectangle 12" transform="translate(77 388)" fill="#2e2d2d" stroke="#707070" stroke-width="1" opacity="0.14">
        <rect width="326" height="15" rx="7.5" stroke="none"/>
        <rect x="0.5" y="0.5" width="325" height="14" rx="7" fill="none"/>
      </g>
    </g>
    <g transform="matrix(1, 0, 0, 1, 189, 225)" filter="url(#Rectangle_13)">
      <g id="Rectangle_13-2" data-name="Rectangle 13" transform="translate(28 431)" fill="#2e2d2d" stroke="#707070" stroke-width="1" opacity="0.14">
        <rect width="375" height="15" rx="7.5" stroke="none"/>
        <rect x="0.5" y="0.5" width="374" height="14" rx="7" fill="none"/>
      </g>
    </g>
    <g transform="matrix(1, 0, 0, 1, 189, 225)" filter="url(#Rectangle_14)">
      <g id="Rectangle_14-2" data-name="Rectangle 14" transform="translate(28 474)" fill="#2e2d2d" stroke="#707070" stroke-width="1" opacity="0.14">
        <rect width="228" height="15" rx="7.5" stroke="none"/>
        <rect x="0.5" y="0.5" width="227" height="14" rx="7" fill="none"/>
      </g>
    </g>
  </g>
</svg>
